<svg width="192" height="192" viewBox="0 0 192 192" fill="none" xmlns="http://www.w3.org/2000/svg">
<path d="M41.399 13.0504L86.5438 84.1074C87.4542 85.5404 86.9923 87.4391 85.5253 88.2934V88.2934C84.0583 89.1477 82.1716 88.6168 81.3656 87.123L41.399 13.0504Z" fill="#69DFFF"/>
<path d="M80.5178 0.30241L90.6338 83.7913C90.8382 85.4781 89.6025 86.997 87.9094 87.1401V87.1401C86.2164 87.2832 84.7416 85.9934 84.658 84.2964L80.5178 0.30241Z" fill="#FFFA5A"/>
<path d="M54.8585 179.871L96.8166 113.83C97.6628 112.498 97.2334 110.733 95.87 109.939V109.939C94.5065 109.145 92.753 109.638 92.0039 111.027L54.8585 179.871Z" fill="#D96DEA"/>
<path d="M91.2159 191.719L100.618 114.123C100.808 112.556 99.6593 111.144 98.0858 111.011V111.011C96.5123 110.878 95.1416 112.077 95.0638 113.654L91.2159 191.719Z" fill="#FFFA5A"/>
<path d="M190.239 145.247L116.245 106.597C114.758 105.821 114.216 103.968 115.049 102.512V102.512C115.882 101.056 117.759 100.578 119.186 101.458L190.239 145.247Z" fill="#6CF465"/>
<path d="M-1.45824e-07 104.19L81.2571 107.069L81.2571 101.311L-1.45824e-07 104.19Z" fill="#6CF465"/>
<path d="M163.039 175.465L112.902 108.885C111.891 107.543 112.198 105.634 113.578 104.676V104.676C114.958 103.719 116.861 104.094 117.773 105.505L163.039 175.465Z" fill="#F94545"/>
<path d="M156.927 14.8637L112.582 84.6613C111.688 86.0689 112.142 87.9339 113.583 88.773V88.773C115.024 89.6122 116.877 89.0908 117.669 87.6234L156.927 14.8637Z" fill="#69DFFF"/>
<path d="M118.502 2.34161L108.565 84.3508C108.364 86.0076 109.578 87.4997 111.241 87.6402V87.6402C112.904 87.7808 114.353 86.5138 114.435 84.8469L118.502 2.34161Z" fill="#D96DEA"/>
<rect width="7.77079" height="4.97215" transform="matrix(0.989013 0.147829 -0.148845 0.988861 22.9672 106.999)" fill="#FFFA5A"/>
<rect width="6.49659" height="20.1067" transform="matrix(0.987453 0.157915 -0.158997 0.987279 68.8524 83.1456)" fill="#D96DEA"/>
<rect width="6.48886" height="20.1307" transform="matrix(0.79726 -0.603637 0.606322 0.795219 34.5375 107.167)" fill="#69DFFF"/>
<rect width="2.47667" height="15.8657" transform="matrix(0.966152 -0.257975 0.259666 0.965699 18.1237 75.6063)" fill="#F94545"/>
<rect width="8.14217" height="3.25827" transform="matrix(0.79726 -0.603637 0.606322 0.795219 41.7186 98.6241)" fill="#F94545"/>
<rect x="29.7502" y="81.7826" width="6.49716" height="9.20054" fill="#D96DEA"/>
<rect width="8.12531" height="3.26502" transform="matrix(-0.20657 -0.978432 0.978722 -0.205189 78.8717 68.9347)" fill="#F94545"/>
<rect width="6.47862" height="9.2269" transform="matrix(0.429316 -0.903154 0.904314 0.426868 58.4745 72.5035)" fill="#D96DEA"/>
<rect x="36.2473" y="96.4353" width="3.74837" height="20.1754" transform="rotate(90 36.2473 96.4353)" fill="#6CF465"/>
<rect width="6.48886" height="6.89021" transform="matrix(0.79726 -0.603637 0.606322 0.795219 29.7502 118.413)" fill="#F94545"/>
<rect width="6.4967" height="5.74668" transform="matrix(0.98981 -0.142394 0.143374 0.989669 42.4025 86.7968)" fill="#69DFFF"/>
<rect width="13.2049" height="10.2888" transform="matrix(0.79726 -0.603637 0.606322 0.795219 46.6229 106.451)" fill="#D96DEA"/>
<rect width="15.2923" height="5.1711" transform="matrix(0.79726 -0.603637 0.606322 0.795219 50.9514 88.2875)" fill="#6CF465"/>
<rect width="5.5537" height="17.3047" transform="matrix(0.110587 -0.993866 -0.993951 -0.109825 59.8055 56.1489)" fill="#69DFFF"/>
<rect width="5.56578" height="17.2672" transform="matrix(0.796197 -0.605038 -0.607723 -0.794149 32.0369 78.9334)" fill="#6CF465"/>
<rect width="6.9839" height="2.7948" transform="matrix(0.796197 -0.605038 -0.607723 -0.794149 40.7654 74.9684)" fill="#69DFFF"/>
<rect width="5.5566" height="4.94336" transform="matrix(0.402473 -0.915432 -0.916464 -0.400116 50.7344 77.1066)" fill="#6CF465"/>
<rect width="11.3264" height="8.82529" transform="matrix(0.796197 -0.605038 -0.607723 -0.794149 35.392 69.1401)" fill="#FFFA5A"/>
<rect width="2.47667" height="15.8657" transform="matrix(0.966152 -0.257975 0.259666 0.965699 108.058 128.424)" fill="#F94545"/>
<rect width="5.5537" height="17.3047" transform="matrix(0.110587 -0.993866 -0.993951 -0.109825 149.74 108.967)" fill="#69DFFF"/>
<rect width="5.56578" height="17.2672" transform="matrix(0.796197 -0.605038 -0.607723 -0.794149 121.971 131.751)" fill="#6CF465"/>
<rect width="6.9839" height="2.7948" transform="matrix(0.796197 -0.605038 -0.607723 -0.794149 130.7 127.786)" fill="#69DFFF"/>
<rect width="11.3264" height="8.82529" transform="matrix(0.796197 -0.605038 -0.607723 -0.794149 125.326 121.958)" fill="#FFFA5A"/>
<rect width="13.1169" height="4.43553" transform="matrix(0.796197 -0.605038 -0.607723 -0.794149 51.4504 69.7228)" fill="#FFFA5A"/>
<rect width="7.74423" height="4.98919" transform="matrix(0.0158128 0.999875 -0.999877 0.0157025 118.691 55.8635)" fill="#FFFA5A"/>
<rect width="6.47445" height="20.1754" transform="matrix(0.00553739 0.999985 -0.999985 0.00549875 149.825 97.0604)" fill="#D96DEA"/>
<rect width="6.48648" height="20.1381" transform="matrix(0.728501 0.685045 -0.687587 0.726102 120.42 67.2651)" fill="#69DFFF"/>
<rect width="2.47008" height="15.9081" transform="matrix(0.414836 0.909896 -0.910987 0.412436 148.974 45.9569)" fill="#F94545"/>
<rect width="8.13918" height="3.25947" transform="matrix(0.728501 0.685045 -0.687587 0.726102 130.055 72.924)" fill="#F94545"/>
<rect width="6.47506" height="9.23194" transform="matrix(0.16446 0.986384 -0.986569 0.163343 144.765 58.3983)" fill="#D96DEA"/>
<rect width="8.14883" height="3.2556" transform="matrix(0.93203 -0.36238 0.364589 0.931168 165.535 104.58)" fill="#F94545"/>
<rect width="6.49546" height="9.20297" transform="matrix(0.961931 0.273292 -0.275068 0.961425 158.659 85.1143)" fill="#D96DEA"/>
<rect width="3.76116" height="20.1068" transform="matrix(-0.986569 0.163343 -0.16446 -0.986384 131.325 67.1868)" fill="#6CF465"/>
<rect width="6.48648" height="6.89274" transform="matrix(0.728501 0.685045 -0.687587 0.726102 108.504 64.402)" fill="#F94545"/>
<rect width="6.47654" height="5.76457" transform="matrix(0.304135 0.952629 -0.953242 0.302207 141.875 71.6578)" fill="#69DFFF"/>
<rect width="13.2" height="10.2926" transform="matrix(0.728501 0.685045 -0.687587 0.726102 123.111 79.0279)" fill="#D96DEA"/>
<rect width="15.2867" height="5.173" transform="matrix(0.728501 0.685045 -0.687587 0.726102 141.801 80.306)" fill="#6CF465"/>
<rect width="5.57288" height="17.2451" transform="matrix(0.998541 -0.0539987 -0.054377 -0.99852 175.067 83.7422)" fill="#69DFFF"/>
<rect width="5.56381" height="17.2734" transform="matrix(0.729706 0.683761 0.686307 -0.727312 147.96 60.1793)" fill="#6CF465"/>
<rect width="6.98142" height="2.79579" transform="matrix(0.729706 0.683761 0.686307 -0.727312 153.316 68.1098)" fill="#69DFFF"/>
<rect width="5.57176" height="4.9299" transform="matrix(0.96954 0.244935 0.246552 -0.96913 152.833 78.2601)" fill="#6CF465"/>
<rect width="11.3224" height="8.82843" transform="matrix(0.729706 0.683761 0.686307 -0.727312 158.205 61.8723)" fill="#FFFA5A"/>
<rect width="5.55649" height="17.2961" transform="matrix(-0.395378 -0.918518 -0.919518 0.393047 78.724 21.801)" fill="#69DFFF"/>
<rect width="5.55647" height="17.2961" transform="matrix(0.393947 -0.919133 -0.920126 -0.391621 65.8402 55.2675)" fill="#6CF465"/>
<rect width="11.3074" height="8.84006" transform="matrix(0.393947 -0.919133 -0.920126 -0.391621 63.9131 45.099)" fill="#FFFA5A"/>
<rect width="13.1122" height="4.43711" transform="matrix(0.729706 0.683761 0.686307 -0.727312 160.26 77.7537)" fill="#FFFA5A"/>
<rect width="8.14883" height="3.2556" transform="matrix(0.93203 -0.36238 0.364589 0.931168 109.601 173.982)" fill="#F94545"/>
<rect width="6.49546" height="9.20297" transform="matrix(0.961931 0.273292 -0.275068 0.961425 102.725 154.515)" fill="#D96DEA"/>
<rect width="5.57288" height="17.2451" transform="matrix(0.998541 -0.0539987 -0.054377 -0.99852 119.133 153.143)" fill="#69DFFF"/>
<rect width="13.1122" height="4.43711" transform="matrix(0.729706 0.683761 0.686307 -0.727312 104.326 147.155)" fill="#FFFA5A"/>
<rect width="7.75609" height="4.9816" transform="matrix(-0.66188 -0.74961 0.751904 -0.659273 127.785 107.634)" fill="#FFFA5A" fill-opacity="0.5"/>
<rect width="6.48414" height="20.1454" transform="matrix(-0.654166 -0.756351 0.758612 -0.651543 77.2736 96.4048)" fill="#D96DEA" fill-opacity="0.5"/>
<rect width="6.4971" height="20.1051" transform="matrix(-0.99873 -0.0503853 0.0507384 -0.998712 119.047 100.074)" fill="#69DFFF" fill-opacity="0.5"/>
<rect width="2.47569" height="15.872" transform="matrix(-0.905949 -0.423386 0.425823 -0.904806 111.187 134.748)" fill="#F94545" fill-opacity="0.5"/>
<rect width="8.15252" height="3.25412" transform="matrix(-0.99873 -0.0503853 0.0507384 -0.998712 108.031 101.995)" fill="#F94545" fill-opacity="0.5"/>
<rect width="6.48774" height="9.21396" transform="matrix(-0.765744 -0.643145 0.645784 -0.76352 106.291 122.559)" fill="#D96DEA" fill-opacity="0.5"/>
<rect width="8.13049" height="3.26295" transform="matrix(-0.474524 0.880242 -0.881624 -0.471953 60.4219 100.836)" fill="#F94545" fill-opacity="0.5"/>
<rect width="6.49325" height="9.20611" transform="matrix(-0.910306 0.413935 -0.416341 -0.909209 78.3263 111.207)" fill="#D96DEA" fill-opacity="0.5"/>
<rect width="3.75383" height="20.1461" transform="matrix(0.645784 -0.76352 0.765744 0.643145 110.799 107.182)" fill="#6CF465" fill-opacity="0.5"/>
<rect width="6.4971" height="6.88143" transform="matrix(-0.99873 -0.0503853 0.0507384 -0.998712 129.98 94.5505)" fill="#F94545" fill-opacity="0.5"/>
<rect width="6.49082" height="5.7519" transform="matrix(-0.8497 -0.527266 0.529933 -0.848039 99.8594 110.599)" fill="#69DFFF" fill-opacity="0.5"/>
<rect width="13.2216" height="10.2757" transform="matrix(-0.99873 -0.0503853 0.0507384 -0.998712 109.343 92.861)" fill="#D96DEA" fill-opacity="0.5"/>
<rect width="15.3117" height="5.16451" transform="matrix(-0.99873 -0.0503853 0.0507384 -0.998712 94.2866 103.969)" fill="#6CF465" fill-opacity="0.5"/>
<rect width="5.5637" height="17.2737" transform="matrix(-0.726009 0.687685 0.690219 0.7236 66.7317 122.857)" fill="#69DFFF" fill-opacity="0.5"/>
<rect width="5.57289" height="17.2451" transform="matrix(-0.998817 -0.0486332 -0.0489741 0.9988 102.7 123.269)" fill="#6CF465" fill-opacity="0.5"/>
<rect width="6.99282" height="2.79122" transform="matrix(-0.998817 -0.0486332 -0.0489741 0.9988 93.4615 120.695)" fill="#69DFFF" fill-opacity="0.5"/>
<rect width="5.56914" height="4.93223" transform="matrix(-0.897752 0.440502 0.442992 0.896526 87.2216 112.658)" fill="#6CF465" fill-opacity="0.5"/>
<rect width="11.3409" height="8.81398" transform="matrix(-0.998817 -0.0486332 -0.0489741 0.9988 93.8008 128.603)" fill="#FFFA5A" fill-opacity="0.5"/>
<rect width="13.1336" height="4.42985" transform="matrix(-0.998817 -0.0486332 -0.0489741 0.9988 81.8988 117.844)" fill="#FFFA5A" fill-opacity="0.5"/>
<rect width="7.77079" height="4.97215" transform="matrix(0.989013 0.147829 -0.148845 0.988861 74.9445 77.0119)" fill="#FFFA5A" fill-opacity="0.5"/>
<rect width="6.49659" height="20.1067" transform="matrix(0.987453 0.157915 -0.158997 0.987279 120.83 53.1587)" fill="#D96DEA" fill-opacity="0.5"/>
<rect width="6.48886" height="20.1307" transform="matrix(0.79726 -0.603637 0.606322 0.795219 86.5148 77.1805)" fill="#69DFFF" fill-opacity="0.5"/>
<rect width="2.47667" height="15.8657" transform="matrix(0.966152 -0.257975 0.259666 0.965699 70.101 45.6193)" fill="#F94545" fill-opacity="0.5"/>
<rect width="8.14217" height="3.25827" transform="matrix(0.79726 -0.603637 0.606322 0.795219 93.6959 68.6372)" fill="#F94545" fill-opacity="0.5"/>
<rect x="81.7275" y="51.7956" width="6.49716" height="9.20054" fill="#D96DEA" fill-opacity="0.5"/>
<rect width="8.12531" height="3.26502" transform="matrix(-0.20657 -0.978432 0.978722 -0.205189 130.849 38.9477)" fill="#F94545" fill-opacity="0.5"/>
<rect width="6.47862" height="9.2269" transform="matrix(0.429316 -0.903154 0.904314 0.426868 110.452 42.5165)" fill="#D96DEA" fill-opacity="0.5"/>
<rect x="88.2246" y="66.4483" width="3.74837" height="20.1754" transform="rotate(90 88.2246 66.4483)" fill="#6CF465" fill-opacity="0.5"/>
<rect width="6.48886" height="6.89021" transform="matrix(0.79726 -0.603637 0.606322 0.795219 81.7275 88.4256)" fill="#F94545" fill-opacity="0.5"/>
<rect width="6.4967" height="5.74668" transform="matrix(0.98981 -0.142394 0.143374 0.989669 94.3798 56.8098)" fill="#69DFFF" fill-opacity="0.5"/>
<rect width="13.2049" height="10.2888" transform="matrix(0.79726 -0.603637 0.606322 0.795219 98.6002 76.4638)" fill="#D96DEA" fill-opacity="0.5"/>
<rect width="15.2923" height="5.1711" transform="matrix(0.79726 -0.603637 0.606322 0.795219 102.929 58.3005)" fill="#6CF465" fill-opacity="0.5"/>
<rect width="5.5537" height="17.3047" transform="matrix(0.110587 -0.993866 -0.993951 -0.109825 111.783 26.162)" fill="#69DFFF" fill-opacity="0.5"/>
<rect width="5.56578" height="17.2672" transform="matrix(0.796197 -0.605038 -0.607723 -0.794149 84.0142 48.9464)" fill="#6CF465" fill-opacity="0.5"/>
<rect width="5.55649" height="17.2961" transform="matrix(-0.395378 -0.918518 -0.919518 0.393047 168.96 128.459)" fill="#69DFFF"/>
<rect width="11.3074" height="8.84006" transform="matrix(0.393947 -0.919133 -0.920126 -0.391621 154.149 151.757)" fill="#FFFA5A"/>
<rect width="5.56578" height="17.2672" transform="matrix(0.796197 -0.605038 -0.607723 -0.794149 174.25 155.605)" fill="#6CF465" fill-opacity="0.5"/>
<rect width="6.9839" height="2.7948" transform="matrix(0.796197 -0.605038 -0.607723 -0.794149 92.7427 44.9815)" fill="#69DFFF" fill-opacity="0.5"/>
<rect width="5.5566" height="4.94336" transform="matrix(0.402473 -0.915432 -0.916464 -0.400116 102.712 47.1196)" fill="#6CF465" fill-opacity="0.5"/>
<rect width="11.3264" height="8.82529" transform="matrix(0.796197 -0.605038 -0.607723 -0.794149 87.3693 39.1532)" fill="#FFFA5A" fill-opacity="0.5"/>
<rect width="5.5537" height="17.3047" transform="matrix(0.110587 -0.993866 -0.993951 -0.109825 67.3919 132.479)" fill="#69DFFF" fill-opacity="0.5"/>
<rect width="6.9839" height="2.7948" transform="matrix(0.796197 -0.605038 -0.607723 -0.794149 48.3518 151.299)" fill="#69DFFF" fill-opacity="0.5"/>
<rect width="5.5566" height="4.94336" transform="matrix(0.402473 -0.915432 -0.916464 -0.400116 58.3209 153.437)" fill="#6CF465" fill-opacity="0.5"/>
<rect width="11.3264" height="8.82529" transform="matrix(0.796197 -0.605038 -0.607723 -0.794149 42.9785 145.471)" fill="#FFFA5A" fill-opacity="0.5"/>
<rect width="13.1169" height="4.43553" transform="matrix(0.796197 -0.605038 -0.607723 -0.794149 103.428 39.7358)" fill="#FFFA5A" fill-opacity="0.5"/>
<path d="M85.1974 72.4567C85.6982 68.732 90.6755 67.8245 92.4674 71.1312V71.1312C93.2674 72.6076 94.9309 73.4031 96.5822 73.102V73.102C100.274 72.4289 102.691 76.8721 100.098 79.5822V79.5822C98.9372 80.7958 98.6933 82.6209 99.4943 84.099V84.099C101.283 87.3996 97.7804 91.0453 94.3928 89.4256V89.4256C92.8769 88.7008 91.057 89.0326 89.8968 90.2453V90.2453C87.3042 92.9554 82.7333 90.7816 83.2333 87.0637V87.0637C83.4571 85.3988 82.5806 83.7779 81.0636 83.0526V83.0526C77.676 81.4329 78.3575 76.4247 82.0493 75.7516V75.7516C83.7007 75.4506 84.9738 74.1197 85.1974 72.4567V72.4567Z" fill="#69DFFF"/>
<path d="M41.0465 47.9863C41.4119 45.2685 45.0437 44.6064 46.3511 47.0192V47.0192C46.9349 48.0964 48.1487 48.6769 49.3536 48.4572V48.4572C52.0475 47.966 53.8109 51.2081 51.9191 53.1856V53.1856C51.072 54.0711 50.894 55.4029 51.4785 56.4814V56.4814C52.7835 58.8897 50.2279 61.5499 47.7561 60.368V60.368C46.65 59.8392 45.3221 60.0813 44.4755 60.9662V60.9662C42.5837 62.9436 39.2485 61.3574 39.6133 58.6446V58.6446C39.7767 57.4298 39.1371 56.2471 38.0302 55.7178V55.7178C35.5583 54.536 36.0556 50.8817 38.7494 50.3906V50.3906C39.9544 50.1709 40.8833 49.1998 41.0465 47.9863V47.9863Z" fill="#D96DEA" fill-opacity="0.5"/>
<path d="M112.707 84.8943C113.247 82.36 110.222 80.6196 108.29 82.3532V82.3532C107.427 83.1279 106.161 83.2605 105.156 82.6826V82.6826C102.911 81.3905 100.31 83.7203 101.365 86.0825V86.0825C101.837 87.1397 101.572 88.3812 100.708 89.1563V89.1563C98.7778 90.8882 100.203 94.0681 102.783 93.7978V93.7978C103.938 93.6769 105.042 94.312 105.514 95.3687V95.3687C106.569 97.731 110.045 97.3708 110.585 94.8391V94.8391C110.827 93.706 111.773 92.8562 112.928 92.7352V92.7352C115.509 92.4649 116.233 89.0554 113.987 87.7633V87.7633C112.983 87.1854 112.465 86.0266 112.707 84.8943V84.8943Z" fill="#F94545"/>
<path d="M90.0233 157.782C89.0624 156.101 86.4787 156.633 86.2644 158.556V158.556C86.1686 159.416 85.518 160.131 84.67 160.305V160.305C82.7708 160.696 82.4732 163.312 84.2421 164.109V164.109C85.0342 164.466 85.5122 165.306 85.4161 166.168V166.168C85.2017 168.092 87.6108 169.167 88.9169 167.739V167.739C89.4996 167.102 90.4484 166.906 91.2368 167.262V167.262C93.0038 168.058 94.7888 166.12 93.8273 164.438V164.438C93.3963 163.684 93.5016 162.724 94.0871 162.084V162.084C95.3946 160.654 94.0819 158.369 92.1826 158.76V158.76C91.3346 158.934 90.453 158.534 90.0233 157.782V157.782Z" fill="#F94545" fill-opacity="0.5"/>
<path d="M106.793 24.0522C107.533 23.0352 109.142 23.5537 109.144 24.8095V24.8095C109.145 25.3702 109.508 25.8669 110.042 26.0389V26.0389C111.236 26.4237 111.241 28.1125 110.047 28.5011V28.5011C109.512 28.675 109.15 29.1736 109.151 29.7349V29.7349C109.153 30.9886 107.543 31.5093 106.803 30.4977V30.4977C106.472 30.045 105.884 29.8556 105.349 30.0294V30.0294C104.155 30.418 103.156 29.0565 103.894 28.0411V28.0411C104.224 27.5865 104.224 26.9713 103.893 26.5184V26.5184C103.153 25.5067 104.149 24.1403 105.343 24.525V24.525C105.877 24.6971 106.463 24.5063 106.793 24.0522V24.0522Z" fill="#F94545" fill-opacity="0.5"/>
<path d="M157.061 98.6788C157.8 97.6618 159.409 98.1803 159.411 99.4361V99.4361C159.412 99.9968 159.775 100.493 160.309 100.666V100.666C161.503 101.05 161.508 102.739 160.314 103.128V103.128C159.779 103.302 159.418 103.8 159.418 104.361V104.361C159.42 105.615 157.81 106.136 157.07 105.124V105.124C156.739 104.672 156.151 104.482 155.617 104.656V104.656C154.423 105.045 153.423 103.683 154.161 102.668V102.668C154.492 102.213 154.491 101.598 154.16 101.145V101.145C153.42 100.133 154.416 98.7669 155.61 99.1516V99.1516C156.145 99.3237 156.731 99.1329 157.061 98.6788V98.6788Z" fill="#D96DEA"/>
<path d="M98.4183 97.2688C97.9354 96.4296 96.6612 96.6956 96.5568 97.6573L95.6995 105.56C95.6528 105.991 95.3345 106.341 94.9107 106.43L87.1099 108.058C86.1609 108.256 86.0224 109.553 86.908 109.949L94.1732 113.198C94.5698 113.376 94.8069 113.788 94.7601 114.22L93.9038 122.113C93.7994 123.076 94.9881 123.611 95.639 122.895L100.995 117.003C101.286 116.683 101.749 116.586 102.144 116.763L109.423 120.018C110.307 120.414 111.18 119.448 110.697 118.608L106.734 111.721C106.517 111.344 106.568 110.871 106.86 110.55L112.206 104.669C112.858 103.952 112.209 102.819 111.26 103.017L103.459 104.646C103.035 104.734 102.602 104.54 102.386 104.165L98.4183 97.2688Z" fill="#FFFA5A" fill-opacity="0.5"/>
<path d="M140.512 139.543C140.995 140.383 142.269 140.117 142.374 139.155L142.549 137.54C142.596 137.11 142.914 136.759 143.338 136.67L144.927 136.338C145.876 136.14 146.014 134.843 145.129 134.447L143.654 133.788C143.257 133.61 143.02 133.198 143.067 132.766L143.241 131.161C143.345 130.198 142.157 129.663 141.506 130.379L140.41 131.584C140.12 131.904 139.657 132 139.262 131.824L137.773 131.158C136.888 130.762 136.015 131.728 136.498 132.568L137.305 133.969C137.521 134.345 137.47 134.818 137.178 135.139L136.093 136.333C135.442 137.05 136.091 138.183 137.04 137.985L138.629 137.653C139.052 137.565 139.485 137.759 139.701 138.134L140.512 139.543Z" fill="#FFFA5A"/>
<path d="M136.344 50.7907C136.264 49.8266 134.997 49.5286 134.493 50.3553L131.018 56.0545C130.793 56.4242 130.355 56.6074 129.934 56.5083L123.427 54.9779C122.483 54.756 121.806 55.8717 122.439 56.6048L126.796 61.6489C127.079 61.9772 127.118 62.4511 126.892 62.8219L123.422 68.5132C122.918 69.3405 123.766 70.328 124.661 69.9548L130.835 67.3787C131.234 67.2122 131.695 67.3205 131.977 67.6473L136.343 72.7027C136.976 73.435 138.178 72.9297 138.098 71.965L137.548 65.3283C137.512 64.8958 137.76 64.4893 138.161 64.322L144.321 61.7516C145.217 61.378 145.111 60.0781 144.167 59.8562L137.661 58.3258C137.239 58.2267 136.93 57.8678 136.894 57.4366L136.344 50.7907Z" fill="#6CF465" fill-opacity="0.5"/>
</svg>
